<svg xmlns="http://www.w3.org/2000/svg" width="16" height="16" viewBox="0 0 16 16">
  <path d="M10.6443568,9.34097652 L9.3466759,9.34097652 L7.85611247,5.1117166 L7.01910831,7.42512768 L8.3073515,7.42512768 L8.66126446,8.43201006 L6.70471562,8.43201006 L6.36613889,9.34215623 L5.06845802,9.34215623 L7.13884886,3.96857773 L8.57278622,3.96857773 L10.6443568,9.34097652 Z M13.0073157,10.9719254 C12.9113425,10.9718726 12.8213455,11.0185214 12.766065,11.0969747 C12.766065,11.0969747 12.5082984,11.3919022 12.3690926,11.5305181 C9.92770902,13.975432 5.98815791,14.0464012 3.4602989,11.691006 C0.932439879,9.33561077 0.725309659,5.40086851 2.99190025,2.79308688 C5.25849085,0.18530526 9.18371959,-0.157738266 11.8683058,2.01733759 C11.7574091,2.33950633 11.886638,2.69536635 12.1784198,2.87130424 C12.4702017,3.04724213 12.8452395,2.99544366 13.078408,2.74700209 C13.3115766,2.49856052 13.3395081,2.12099423 13.1454361,1.84094634 C12.951364,1.56089845 12.588031,1.45447691 12.2735361,1.58556377 C9.28864174,-0.860074948 4.88751235,-0.428759618 2.43419801,2.5498293 C-0.0191163201,5.52841821 0.400868187,9.93064332 3.37313191,12.391617 C6.34539563,14.8525907 10.7486873,14.4439398 13.217304,11.478021 C13.3028076,11.3937042 13.328652,11.2659653 13.2826499,11.155042 C13.2366478,11.0441187 13.1279859,10.9721623 13.0079055,10.9731051 L13.0073157,10.9719254 Z" transform="translate(0 1)"/>
</svg>
