<?xml version="1.0" encoding="utf-8"?>
<svg version="1.1" xmlns="http://www.w3.org/2000/svg" xmlns:xlink="http://www.w3.org/1999/xlink" x="0px" y="0px"
	 viewBox="0 0 16 16" style="enable-background:new 0 0 16 16;" xml:space="preserve">
<style type="text/css">
	.st0{fill-rule:evenodd;clip-rule:evenodd;fill:#DF0098;}
	.st1{opacity:0.8;fill:#9AA7B0;}
</style>
<g id="logo">
	<g transform="translate(1.08 .5)">
		<polygon class="st0" points="6.2,10.1 5.8,9.9 10,2.8 10.4,3 		"/>
		<polygon class="st0" points="5.7,9.3 14.1,9.3 14.1,9.8 5.7,9.8 		"/>
		<path class="st0" d="M10.1,11.9L5.9,9.6l0.2-0.4l4.2,2.4L10.1,11.9z M13.7,5.8L9.5,3.4l0.2-0.4l4.2,2.4L13.7,5.8z"/>
		<polygon class="st0" points="6.1,5.8 5.9,5.4 10.1,3.1 10.3,3.4 		"/>
		<path class="st0" d="M13.6,10.1L9.5,3l0.4-0.2L14,9.9L13.6,10.1z M6.1,5.1h0.4v4.7H6.1V5.1z M13.3,5.1h0.4v4.7h-0.4V5.1z"/>
		<polygon class="st0" points="10,11.8 9.8,11.4 13.5,9.4 13.6,9.7 		"/>
		<path class="st0" d="M14.3,10c-0.3,0.4-0.8,0.6-1.2,0.3c-0.4-0.2-0.6-0.8-0.3-1.2s0.8-0.6,1.2-0.3C14.4,9,14.6,9.6,14.3,10
			 M7.1,5.9C6.8,6.3,6.3,6.5,5.8,6.2C5.4,6,5.2,5.4,5.5,5s0.8-0.6,1.2-0.3C7.2,4.9,7.3,5.5,7.1,5.9 M5.5,10C5.2,9.6,5.4,9,5.8,8.8
			c0.4-0.2,1-0.1,1.2,0.3c0.3,0.4,0.1,1-0.3,1.2C6.3,10.6,5.7,10.4,5.5,10 M12.8,5.9c-0.3-0.4-0.1-1,0.3-1.2c0.4-0.2,1-0.1,1.2,0.3
			c0.3,0.4,0.1,1-0.3,1.2C13.6,6.5,13,6.3,12.8,5.9 M9.9,12.5c-0.5,0-0.9-0.4-0.9-0.9s0.4-0.9,0.9-0.9s0.9,0.4,0.9,0.9
			C10.8,12.1,10.4,12.5,9.9,12.5 M9.9,4.3C9.4,4.3,9,3.9,9,3.4s0.4-0.9,0.9-0.9s0.9,0.4,0.9,0.9S10.4,4.3,9.9,4.3"/>
	</g>
</g>
<g id="Layer_4">
	<path class="st1" d="M5.9,11.3H5.8v-0.1c0,0-0.1-0.1-0.1-0.1c0-0.1,0-0.1-0.1-0.2l-0.1-0.1l0-0.1c0-0.1,0-0.1-0.1-0.2l-0.8,0.4
		L2,9.4V6.6l2.8-1.5l0.7,0.4c0-0.2,0.1-0.3,0.2-0.5C6,4.5,6.6,4.1,7.1,4.1L5.4,3.2C5,2.9,4.5,2.9,4.1,3.2l0.4,0.7L4.1,3.2L0.7,5
		C0.3,5.2,0,5.7,0,6.2v3.6c0,0.5,0.3,1,0.7,1.2l3.3,1.8C4.3,12.9,4.5,13,4.8,13c0.2,0,0.5-0.1,0.7-0.2l1.7-0.9
		C6.7,11.9,6.2,11.6,5.9,11.3z"/>
</g>
</svg>
