<?xml version="1.0" encoding="utf-8"?>
<svg version="1.1" xmlns="http://www.w3.org/2000/svg" xmlns:xlink="http://www.w3.org/1999/xlink" x="0px" y="0px"
	 viewBox="0 0 16 16" style="enable-background:new 0 0 16 16;" xml:space="preserve">
<style type="text/css">
	.st0{opacity:0.8;fill:#9AA7B0;enable-background:new    ;}
	.st1{fill:#DF0098;}
	.st2{fill-rule:evenodd;clip-rule:evenodd;fill:#DF0098;}
	.st3{opacity:0.5;fill:#FFFFFF;}
</style>
<g id="ear">
	<title>text</title>
	<polygon class="st0" points="6,0 2,4 6,4 	"/>
</g>
<g id="document">
	<g>
		<polygon class="st0" points="12.8,11.5 11,8.4 9.2,11.5 		"/>
		<path class="st0" d="M7.7,14.6c-0.1,0.1-0.3,0.1-0.4,0.1l0,0l-0.1,0c-0.1,0-0.1,0-0.2,0c-0.6,0-1.2-0.3-1.5-0.7H5.4v-0.1
			c0-0.1-0.1-0.1-0.1-0.2c0-0.1-0.1-0.1-0.1-0.2l-0.1,0l0,0C5,13.1,5,12.7,5.1,12.2c0.1-0.3,0.2-0.5,0.3-0.7v0h0
			c0.1-0.1,0.2-0.2,0.3-0.3V9.8c-0.3-0.3-0.6-0.6-0.7-1C4.9,8.2,5,7.7,5.3,7.2C5.8,6.4,6.8,6,7.7,6.4L9,5.7c0-0.1,0.1-0.3,0.1-0.4
			l0,0l0,0C9.4,4.6,10,4.1,10.7,4l0,0l0,0c0.1,0,0.2,0,0.2,0c0.1,0,0.2,0,0.2,0l0,0l0,0c0.7,0.1,1.3,0.5,1.5,1.2l0.1,0l0,0
			c0.1,0.1,0.1,0.3,0.1,0.4l0,0V0H7l0,5h0l0,0H2l0,10h6.5L7.7,14.6z"/>
	</g>
</g>
<g id="schema">
	<rect y="8" class="st1" width="8" height="5"/>
</g>
<g id="logo">
	<g transform="translate(1.08 .5)">
		<polygon class="st2" points="5.8,12.9 5.4,12.7 10,4.9 10.4,5.1 		"/>
		<polygon class="st2" points="5.3,12 14.5,12 14.5,12.5 5.3,12.5 		"/>
		<path class="st2" d="M10.1,14.9l-4.6-2.6l0.2-0.4l4.6,2.6L10.1,14.9z M14.1,8.1L9.5,5.5l0.2-0.4l4.6,2.6L14.1,8.1z"/>
		<polygon class="st2" points="5.7,8.1 5.5,7.7 10.1,5.1 10.3,5.5 		"/>
		<path class="st2" d="M14,12.9L9.4,5.1l0.4-0.2l4.6,7.8L14,12.9z M5.7,7.4h0.5v5.2H5.7V7.4z M13.7,7.4h0.5v5.2h-0.5V7.4z"/>
		<polygon class="st2" points="10,14.7 9.8,14.3 13.8,12.1 14,12.4 		"/>
		<path class="st2" d="M14.8,12.8c-0.3,0.5-0.9,0.6-1.4,0.4s-0.6-0.9-0.4-1.3c0.3-0.5,0.9-0.6,1.4-0.4
			C14.9,11.7,15.1,12.3,14.8,12.8 M6.8,8.2C6.5,8.7,5.9,8.9,5.4,8.6C4.9,8.3,4.8,7.7,5,7.3c0.3-0.5,0.9-0.6,1.4-0.4
			C6.9,7.2,7.1,7.8,6.8,8.2 M5.1,12.8c-0.3-0.5-0.1-1.1,0.4-1.3c0.5-0.3,1.1-0.1,1.4,0.4c0.3,0.5,0.1,1.1-0.4,1.3
			C5.9,13.4,5.3,13.2,5.1,12.8 M13,8.2c-0.3-0.5-0.1-1.1,0.4-1.3c0.5-0.3,1.1-0.1,1.4,0.4c0.3,0.5,0.1,1.1-0.4,1.3
			C13.9,8.9,13.3,8.7,13,8.2 M9.9,15.5c-0.6,0-1-0.4-1-1c0-0.5,0.4-1,1-1s1,0.4,1,1C10.9,15.1,10.5,15.5,9.9,15.5 M9.9,6.5
			c-0.6,0-1-0.4-1-1s0.4-1,1-1s1,0.4,1,1S10.5,6.5,9.9,6.5"/>
	</g>
</g>
<g id="types">
	<rect x="1" y="9" class="st3" width="5" height="1"/>
	<rect x="1" y="11" class="st3" width="5" height="1"/>
</g>
</svg>
