<svg xmlns="http://www.w3.org/2000/svg" width="13" height="13" viewBox="0 0 13 13">
  <g fill="#AFB1B3" fill-rule="evenodd" transform="translate(.7)">
    <polygon points="1.077 9.905 .6 9.629 5.911 .43 6.388 .706"/>
    <polygon points=".491 8.894 11.113 8.894 11.113 9.445 .491 9.445"/>
    <path d="M6.01409184,12.2712704 L0.701005102,9.20366837 L0.976260204,8.72691327 L6.28934694,11.7945153 L6.01409184,12.2712704 Z M10.6295561,4.27630357 L5.31646939,1.20870153 L5.59172449,0.731946429 L10.9048112,3.79954847 L10.6295561,4.27630357 Z"/>
    <polygon points=".978 4.274 .702 3.797 6.016 .73 6.291 1.207"/>
    <path d="M10.5315918,9.90464031 L5.2204949,0.705813776 L5.69725,0.430558673 L11.0083469,9.6293852 L10.5315918,9.90464031 Z M0.911989796,3.43239796 L1.4625,3.43239796 L1.4625,9.56760204 L0.911989796,9.56760204 L0.911989796,3.43239796 Z M10.1446429,3.43239796 L10.6951531,3.43239796 L10.6951531,9.56760204 L10.1446429,9.56760204 L10.1446429,3.43239796 Z"/>
    <polygon points="5.92 12.038 5.68 11.622 10.301 8.954 10.541 9.37"/>
    <path d="M11.4247449,9.74668367 C11.1063776,10.3005102 10.3966837,10.4895408 9.84285714,10.1711735 C9.28903061,9.85280612 9.1,9.14311224 9.41836735,8.58928571 C9.73673469,8.03545918 10.4464286,7.84642857 11.0002551,8.16479592 C11.557398,8.48647959 11.7464286,9.19285714 11.4247449,9.74668367 M2.18545918,4.41071429 C1.86709184,4.96454082 1.15739796,5.15357143 0.603571429,4.83520408 C0.049744898,4.51683673 -0.139285714,3.80714286 0.179081633,3.25331633 C0.49744898,2.6994898 1.20714286,2.51045918 1.76096939,2.82882653 C2.31479592,3.1505102 2.50382653,3.85688776 2.18545918,4.41071429 M0.182397959,9.74668367 C-0.135969388,9.19285714 0.0530612245,8.48647959 0.606887755,8.16479592 C1.16071429,7.84642857 1.86709184,8.03545918 2.18877551,8.58928571 C2.50714286,9.14311224 2.31811224,9.8494898 1.76428571,10.1711735 C1.20714286,10.4895408 0.500765306,10.3005102 0.182397959,9.74668367 M9.42168367,4.41071429 C9.10331633,3.85688776 9.29234694,3.1505102 9.84617347,2.82882653 C10.4,2.51045918 11.1063776,2.6994898 11.4280612,3.25331633 C11.7464286,3.80714286 11.557398,4.51352041 11.0035714,4.83520408 C10.4497449,5.15357143 9.74005102,4.96454082 9.42168367,4.41071429 M5.80357143,12.9933673 C5.16352041,12.9933673 4.64617347,12.4760204 4.64617347,11.8359694 C4.64617347,11.1959184 5.16352041,10.6785714 5.80357143,10.6785714 C6.44362245,10.6785714 6.96096939,11.1959184 6.96096939,11.8359694 C6.96096939,12.4727041 6.44362245,12.9933673 5.80357143,12.9933673 M5.80357143,2.32142857 C5.16352041,2.32142857 4.64617347,1.80408163 4.64617347,1.16403061 C4.64617347,0.523979592 5.16352041,0.00663265306 5.80357143,0.00663265306 C6.44362245,0.00663265306 6.96096939,0.523979592 6.96096939,1.16403061 C6.96096939,1.80408163 6.44362245,2.32142857 5.80357143,2.32142857"/>
  </g>
</svg>
