<svg xmlns="http://www.w3.org/2000/svg" width="16" height="16" viewBox="0 0 16 16">
  <g fill="none" fill-rule="evenodd">
    <rect width="14" height="14" fill="#62B543" fill-opacity=".6" rx="3" transform="translate(1 1)"/>
    <path fill="#231F20" fill-opacity=".7" d="M11.0654843,10.2796726 L10.4188267,11 L9.73124147,10.3860846 C9.24829468,10.7298772 8.65075034,10.9263302 7.98772169,10.9263302 C6.22783083,10.9263302 5,9.59208731 5,7.97953615 L5,7.96316508 C5,6.35061392 6.24420191,5 8.00409277,5 C9.76398363,5 10.9918145,6.33424284 10.9918145,7.946794 L10.9918145,7.96316508 C10.9918145,8.61800819 10.7789905,9.22373806 10.4106412,9.72305593 L11.0654843,10.2796726 Z M8.00409277,9.99317872 C8.38062756,9.99317872 8.70804911,9.90313779 8.99454297,9.73942701 L8.00409277,8.88813097 L8.65075034,8.15143247 L9.65757162,9.06821282 C9.83765348,8.75716235 9.93587995,8.3888131 9.93587995,7.97953615 L9.93587995,7.96316508 C9.93587995,6.84993179 9.1255116,5.93315143 7.98772169,5.93315143 C6.84993179,5.93315143 6.05593452,6.83356071 6.05593452,7.946794 L6.05593452,7.96316508 C6.05593452,9.07639836 6.86630286,9.99317872 8.00409277,9.99317872 Z"/>
  </g>
</svg>
