<svg xmlns="http://www.w3.org/2000/svg" width="16" height="16" viewBox="0 0 16 16">
  <g fill="#F26B00" fill-rule="evenodd" transform="translate(1 3.7)">
    <path d="M2.64328854,1.32413439 C2.64328854,2.05346245 2.05207905,2.64445059 1.32297233,2.64445059 C0.593644269,2.64445059 0.00260079051,2.05346245 0.00260079051,1.32413439 C0.00260079051,0.594806324 0.593588933,0.00381818182 1.322917,0.00381818182 C2.05210672,0.00381818182 2.64328854,0.594806324 2.64328854,1.32413439"/>
    <path d="M5.28801581,7.28290514 C4.31271937,7.28290514 3.51931225,6.48955336 3.51931225,5.51428458 C3.51931225,4.53901581 4.3127747,3.74558103 5.28801581,3.74558103 L8.62975494,3.74558103 C9.2056917,3.74558103 9.67430435,3.27694071 9.67430435,2.70094862 C9.67430435,2.12495652 9.20566403,1.65631621 8.62975494,1.65631621 L1.32280632,1.65631621 C1.1228498,1.65631621 0.960743083,1.49418182 0.960743083,1.29428063 C0.960743083,1.09432411 1.12287747,0.932217391 1.32277866,0.932217391 L8.6296996,0.932217391 C9.60499605,0.932217391 10.3983202,1.72567984 10.3983202,2.70092095 C10.3983202,3.67616206 9.60496838,4.4695415 8.6296996,4.4695415 L5.28796047,4.4695415 C4.71191304,4.4695415 4.24332806,4.93818182 4.24332806,5.51428458 C4.24332806,6.09022134 4.71196838,6.55883399 5.28796047,6.55883399 L12.676917,6.55883399 C12.8768735,6.55883399 13.0389802,6.72096838 13.0389802,6.92086957 C13.0389802,7.12079842 12.8769012,7.28290514 12.6769447,7.28290514 L5.28801581,7.28290514 Z"/>
    <path d="M11.3567115,6.9209249 C11.3567115,6.19159684 11.9476996,5.6006087 12.6770277,5.6006087 C13.4063557,5.6006087 13.9973439,6.19159684 13.9973439,6.9209249 C13.9973439,7.65025296 13.4063557,8.24124111 12.6770277,8.24124111 C11.9476996,8.24124111 11.3567115,7.65025296 11.3567115,6.9209249"/>
  </g>
</svg>
