<svg width="12" height="12" viewBox="0 0 12 12" fill="none" xmlns="http://www.w3.org/2000/svg">
<path fill-rule="evenodd" clip-rule="evenodd" d="M6.99987 0.983587L9.98555 2.6423C10.1359 2.55196 10.3119 2.5 10.5 2.5C11.0523 2.5 11.5 2.94772 11.5 3.5C11.5 3.87014 11.2989 4.19331 11 4.36622V7.63378C11.2989 7.80669 11.5 8.12986 11.5 8.5C11.5 9.05229 11.0523 9.5 10.5 9.5C10.3119 9.5 10.136 9.44808 9.9857 9.35779L6.99987 11.0166C6.99101 11.5612 6.54675 12 6 12C5.45325 12 5.00899 11.5612 5.00013 11.0166L2.0143 9.35779C1.86403 9.44808 1.68808 9.5 1.5 9.5C0.947715 9.5 0.5 9.05229 0.5 8.5C0.5 8.12986 0.701099 7.80669 1 7.63378V4.36622C0.701099 4.19331 0.5 3.87014 0.5 3.5C0.5 2.94772 0.947715 2.5 1.5 2.5C1.68814 2.5 1.86414 2.55196 2.01445 2.6423L5.00013 0.983587C5.0089 0.438872 5.4532 0 6 0C6.5468 0 6.9911 0.438872 6.99987 0.983587ZM2 4.36622C2.29443 4.1959 2.49396 3.87978 2.49987 3.51658L4.6105 2.34401L2 6.69484V4.36622ZM6.51445 10.1423C6.36414 10.052 6.18814 10 6 10C5.81186 10 5.63586 10.052 5.48555 10.1423L3.42941 9H8.57059L6.51445 10.1423ZM9.50013 3.51658C9.50604 3.87978 9.70557 4.1959 10 4.36622V6.69484L7.3895 2.34401L9.50013 3.51658ZM6 2C6.00562 2 6.01123 1.99995 6.01682 1.99986L9.61691 8H2.3831L5.98318 1.99986C5.98877 1.99995 5.99438 2 6 2Z" fill="#DF0098"/>
</svg>
