<svg width="16" height="16" viewBox="0 0 16 16" fill="none" xmlns="http://www.w3.org/2000/svg">
<path d="M8 2C4.68629 2 2 4.68629 2 8C2 11.3137 4.68629 14 8 14C9.65699 14 11.1563 13.329 12.2426 12.2426C12.4379 12.0474 12.7545 12.0474 12.9497 12.2426C13.145 12.4379 13.145 12.7545 12.9497 12.9497C11.6835 14.216 9.93286 15 8 15C4.13401 15 1 11.866 1 8C1 4.13401 4.13401 1 8 1C9.35335 1 10.6174 1.38438 11.6883 2.04952C11.7864 2.01738 11.8912 2 12 2C12.5523 2 13 2.44772 13 3C13 3.55228 12.5523 4 12 4C11.4477 4 11 3.55228 11 3C11 2.936 11.006 2.8734 11.0175 2.81274C10.131 2.29587 9.10028 2 8 2Z" fill="white"/>
<path fill-rule="evenodd" clip-rule="evenodd" d="M7.47034 4.98047H8.53244L10.7985 11.0005H9.79664L9.26774 9.51697H6.79094L6.30074 11.0005H5.27734L7.47034 4.98047ZM8.99254 8.73007L8.08954 6.22317L7.99494 5.84907L7.90034 6.22317L7.04464 8.73007H8.99254Z" fill="white"/>
</svg>
