<svg width="20" height="20" viewBox="0 0 20 20" fill="none" xmlns="http://www.w3.org/2000/svg">
<path d="M10 3L16.5 6V14L10 17.5L3.5 14V6L10 3ZM10 3L16.5 13.5H3.5L10 3Z" stroke="#6C707E"/>
<path d="M12 3C12 4.10457 11.1046 5 10 5C8.89543 5 8 4.10457 8 3C8 1.89543 8.89543 1 10 1C11.1046 1 12 1.89543 12 3Z" fill="#6C707E"/>
<path d="M12 17.5C12 18.6046 11.1046 19.5 10 19.5C8.89543 19.5 8 18.6046 8 17.5C8 16.3954 8.89543 15.5 10 15.5C11.1046 15.5 12 16.3954 12 17.5Z" fill="#6C707E"/>
<path d="M18.5 6C18.5 7.10457 17.6046 8 16.5 8C15.3954 8 14.5 7.10457 14.5 6C14.5 4.89543 15.3954 4 16.5 4C17.6046 4 18.5 4.89543 18.5 6Z" fill="#6C707E"/>
<path d="M18.5 14C18.5 15.1046 17.6046 16 16.5 16C15.3954 16 14.5 15.1046 14.5 14C14.5 12.8954 15.3954 12 16.5 12C17.6046 12 18.5 12.8954 18.5 14Z" fill="#6C707E"/>
<path d="M5.5 14C5.5 15.1046 4.60457 16 3.5 16C2.39543 16 1.5 15.1046 1.5 14C1.5 12.8954 2.39543 12 3.5 12C4.60457 12 5.5 12.8954 5.5 14Z" fill="#6C707E"/>
<path d="M5.5 6C5.5 7.10457 4.60457 8 3.5 8C2.39543 8 1.5 7.10457 1.5 6C1.5 4.89543 2.39543 4 3.5 4C4.60457 4 5.5 4.89543 5.5 6Z" fill="#6C707E"/>
</svg>
