<svg width="20" height="20" viewBox="0 0 20 20" fill="none" xmlns="http://www.w3.org/2000/svg">
<path fill-rule="evenodd" clip-rule="evenodd" d="M12 2.5C12 2.54384 11.9986 2.58735 11.9958 2.63049L15.9065 4.51841C16.2615 4.19628 16.7328 4 17.25 4C18.3546 4 19.25 4.89543 19.25 6C19.25 6.83934 18.733 7.55793 18 7.85462V12.1454C18.733 12.4421 19.25 13.1607 19.25 14C19.25 15.1046 18.3546 16 17.25 16C16.7327 16 16.2613 15.8036 15.9062 15.4813L11.9958 17.3692C11.9986 17.4124 12 17.456 12 17.5C12 18.6046 11.1046 19.5 10 19.5C8.89543 19.5 8 18.6046 8 17.5C8 17.456 8.00142 17.4124 8.00421 17.3692L4.09375 15.4813C3.73869 15.8036 3.26728 16 2.75 16C1.64543 16 0.75 15.1046 0.75 14C0.75 13.1607 1.26704 12.4421 2 12.1454V7.85462C1.26704 7.55793 0.75 6.83934 0.75 6C0.75 4.89543 1.64543 4 2.75 4C3.26715 4 3.73846 4.19628 4.09349 4.51841L8.00419 2.63049C8.00141 2.58735 8 2.54384 8 2.5C8 1.39543 8.89543 0.5 10 0.5C11.1046 0.5 12 1.39543 12 2.5ZM8.84824 4.13527C8.78108 4.08788 8.71696 4.03645 8.65625 3.98135L4.74579 5.86915C4.74858 5.91241 4.75 5.95604 4.75 6C4.75 6.83934 4.23296 7.55793 3.5 7.85462V12.1454C3.52061 12.1537 3.54105 12.1624 3.56132 12.1714L8.84824 4.13527ZM11.1512 4.13568L16.438 12.1717C16.4585 12.1626 16.4792 12.1538 16.5 12.1454V7.85462C15.767 7.55793 15.25 6.83934 15.25 6C15.25 5.95604 15.2514 5.91241 15.2542 5.86915L11.3438 3.98135C11.2829 4.03661 11.2186 4.08818 11.1512 4.13568ZM15.25 13.9998H4.75C4.75 13.9999 4.75 13.9998 4.75 13.9998C4.75 14.0437 4.74859 14.0873 4.74581 14.1305L8.65651 16.0184C9.01154 15.6963 9.48285 15.5 10 15.5C10.5172 15.5 10.9885 15.6963 11.3435 16.0184L15.2542 14.1305C15.2514 14.0873 15.25 14.0437 15.25 13.9998C15.25 13.9998 15.25 13.9999 15.25 13.9998ZM9.99957 5.11443L14.8584 12.4998H5.14075L9.99957 5.11443Z" fill="#CED0D6"/>
</svg>
