<svg width="16" height="16" viewBox="0 0 16 16" fill="none" xmlns="http://www.w3.org/2000/svg">
<path d="M14.133 6.99123L12.7442 6.19764C12.2831 5.93412 11.7169 5.93412 11.2558 6.19764L10.3194 6.7327C10.1229 6.55009 10 6.2894 10 6V3C10 2.44772 10.4477 2 11 2H14C14.5523 2 15 2.44772 15 3V6C15 6.50719 14.6224 6.92619 14.133 6.99123Z" fill="#EBECF0"/>
<path d="M8 8.05809L7.75579 8.19764C7.28843 8.4647 7 8.96171 7 9.5V14H2C1.44772 14 1 13.5523 1 13V8C1 7.44772 1.44772 7 2 7H7C7.55228 7 8 7.44772 8 8V8.05809Z" fill="#EBECF0"/>
<path d="M14.133 6.99123L12.7442 6.19764C12.5136 6.06588 12.2568 6 12 6H14V3L11 3V6H12C11.7432 6 11.4864 6.06588 11.2558 6.19764L10.3194 6.7327C10.1229 6.55009 10 6.2894 10 6V5H5V7H7C7.55228 7 8 7.44772 8 8V8.05809L7.75579 8.19764C7.28843 8.4647 7 8.96171 7 9.5V8H2V13H7V14H2C1.44772 14 1 13.5523 1 13V8C1 7.44772 1.44772 7 2 7H4V5C4 4.44772 4.44772 4 5 4H10V3C10 2.44772 10.4477 2 11 2H14C14.5523 2 15 2.44772 15 3V6C15 6.50719 14.6224 6.92619 14.133 6.99123Z" fill="#6C707E"/>
<path d="M15.5 9.5V13.5L12 15.5L8.5 13.5V9.5L12 7.5L15.5 9.5Z" stroke="#DF0098" stroke-linejoin="round"/>
<path d="M15 13.5H9L12 8L15 13.5Z" stroke="#DF0098" stroke-linejoin="round"/>
</svg>
