<svg width="14" height="14" viewBox="0 0 14 14" fill="none" xmlns="http://www.w3.org/2000/svg">
<path fill-rule="evenodd" clip-rule="evenodd" d="M8.5 1.5C8.5 1.54379 8.49812 1.58714 8.49445 1.62998L11.4195 2.95955C11.6924 2.67625 12.0756 2.5 12.5 2.5C13.3284 2.5 14 3.17157 14 4C14 4.65311 13.5826 5.20873 13 5.41465V8.58535C13.5826 8.79127 14 9.34689 14 10C14 10.8284 13.3284 11.5 12.5 11.5C12.0755 11.5 11.6923 11.3237 11.4194 11.0403L8.49443 12.3699C8.49812 12.4127 8.5 12.4562 8.5 12.5C8.5 13.3284 7.82843 14 7 14C6.17157 14 5.5 13.3284 5.5 12.5C5.5 12.4562 5.50188 12.4127 5.50557 12.3699L2.58061 11.0403C2.30774 11.3237 1.92446 11.5 1.5 11.5C0.671573 11.5 0 10.8284 0 10C0 9.34689 0.417404 8.79127 1 8.58535V5.41465C0.417404 5.20873 0 4.65311 0 4C0 3.17157 0.671573 2.5 1.5 2.5C1.9244 2.5 2.30763 2.67625 2.58049 2.95955L5.50555 1.62998C5.50188 1.58714 5.5 1.54379 5.5 1.5C5.5 0.671573 6.17157 0 7 0C7.82843 0 8.5 0.671573 8.5 1.5ZM6.67412 2.9645C6.77903 2.98774 6.88809 3 7 3C7.11178 3 7.2207 2.98777 7.3255 2.96459L11.0977 9.00004H2.9019L6.67412 2.9645ZM8.30267 2.64127L11.0056 3.86986C11.0019 3.91275 11 3.95615 11 4C11 4.65311 11.4174 5.20873 12 5.41465V8.55699L8.30267 2.64127ZM11 10H3C3 10.0438 2.99812 10.0872 2.99445 10.13L5.91951 11.4595C6.19237 11.1763 6.5756 11 7 11C7.4244 11 7.80763 11.1763 8.08049 11.4595L11.0056 10.13C11.0019 10.0872 11 10.0438 11 10ZM2 8.55629L5.69672 2.64154L2.99443 3.86986C2.99812 3.91275 3 3.95615 3 4C3 4.65311 2.5826 5.20873 2 5.41465V8.55629Z" fill="#DF0098"/>
</svg>
