<svg width="16" height="16" viewBox="0 0 16 16" fill="none" xmlns="http://www.w3.org/2000/svg">
<rect x="2.5" y="2.5" width="11" height="11" rx="1.5" fill="#45322B" stroke="#C77D55"/>
<path d="M10.0657 5.24561C9.25361 5.24561 8.636 5.64718 8.29593 6.31525C8.00368 5.64245 7.40552 5.24561 6.6071 5.24561C5.84915 5.24561 5.28147 5.60934 4.96189 6.2485V5.37176H4V10.7541H4.99869V7.58989C4.99869 6.68056 5.5138 6.10763 6.32852 6.10763C7.0749 6.10763 7.50591 6.61748 7.50591 7.43746V10.7541H8.49409V7.58989C8.49409 6.68056 9.01971 6.10763 9.82392 6.10763C10.5756 6.10763 11.0013 6.61748 11.0013 7.43746V10.7541H12V7.35861C12 6.07084 11.2168 5.24561 10.0657 5.24561Z" fill="#C77D55"/>
</svg>
