<svg width="14" height="14" viewBox="0 0 14 14" fill="none" xmlns="http://www.w3.org/2000/svg">
<rect x="1.5" y="1.5" width="11" height="11" rx="1.5" fill="#F2FCF3" stroke="#208A3C"/>
<path d="M7.7088 11.4159C7.4336 11.4159 7.192 11.3631 6.984 11.2575C6.7792 11.1519 6.6208 11.0015 6.5088 10.8063C6.3968 10.6111 6.3408 10.3823 6.3408 10.1199L6.336 9.37108H7.3344V10.1151C7.3344 10.2271 7.3552 10.3215 7.3968 10.3983C7.4384 10.4783 7.4992 10.5391 7.5792 10.5807C7.6592 10.6223 7.7536 10.6431 7.8624 10.6431H8.6496V11.4159H7.7088ZM6.8448 9.03988C7.2736 9.03988 7.6624 8.93268 8.0112 8.71828C8.36 8.50068 8.632 8.20148 8.8272 7.82068C9.0256 7.43668 9.1248 7.00308 9.1248 6.51988C9.1248 6.03348 9.0272 5.59988 8.832 5.21908C8.64 4.83508 8.3696 4.53588 8.0208 4.32148C7.6752 4.10708 7.2832 3.99988 6.8448 3.99988C6.4096 3.99988 6.0176 4.10868 5.6688 4.32628C5.3232 4.54068 5.0512 4.83828 4.8528 5.21908C4.6544 5.59988 4.5552 6.03348 4.5552 6.51988C4.5552 7.00628 4.6544 7.43988 4.8528 7.82068C5.0512 8.20148 5.3232 8.50068 5.6688 8.71828C6.0176 8.93268 6.4096 9.03988 6.8448 9.03988ZM6.8448 9.99508C6.2144 9.99508 5.6432 9.84468 5.1312 9.54388C4.6192 9.23988 4.216 8.82388 3.9216 8.29588C3.6272 7.76468 3.48 7.17268 3.48 6.51988C3.48 5.86708 3.6272 5.27668 3.9216 4.74868C4.216 4.21748 4.6192 3.80148 5.1312 3.50068C5.6432 3.19668 6.2144 3.04468 6.8448 3.04468C7.4688 3.04468 8.0368 3.19668 8.5488 3.50068C9.064 3.80148 9.4672 4.21748 9.7584 4.74868C10.0528 5.27668 10.2 5.86708 10.2 6.51988C10.2 7.17268 10.0528 7.76468 9.7584 8.29588C9.4672 8.82388 9.064 9.23988 8.5488 9.54388C8.0368 9.84468 7.4688 9.99508 6.8448 9.99508Z" fill="#208A3C"/>
</svg>
