<svg width="16" height="16" viewBox="0 0 16 16" fill="none" xmlns="http://www.w3.org/2000/svg">
<rect x="2.5" y="2.5" width="11" height="11" rx="1.5" fill="#F2FCF3" stroke="#208A3C"/>
<path d="M8.7088 12.4159C8.4336 12.4159 8.192 12.3631 7.984 12.2575C7.7792 12.1519 7.6208 12.0015 7.5088 11.8063C7.3968 11.6111 7.3408 11.3823 7.3408 11.1199L7.336 10.3711H8.3344V11.1151C8.3344 11.2271 8.3552 11.3215 8.3968 11.3983C8.4384 11.4783 8.4992 11.5391 8.5792 11.5807C8.6592 11.6223 8.7536 11.6431 8.8624 11.6431H9.6496V12.4159H8.7088ZM7.8448 10.0399C8.2736 10.0399 8.6624 9.93268 9.0112 9.71828C9.36 9.50068 9.632 9.20148 9.8272 8.82068C10.0256 8.43668 10.1248 8.00308 10.1248 7.51988C10.1248 7.03348 10.0272 6.59988 9.832 6.21908C9.64 5.83508 9.3696 5.53588 9.0208 5.32148C8.6752 5.10708 8.2832 4.99988 7.8448 4.99988C7.4096 4.99988 7.0176 5.10868 6.6688 5.32628C6.3232 5.54068 6.0512 5.83828 5.8528 6.21908C5.6544 6.59988 5.5552 7.03348 5.5552 7.51988C5.5552 8.00628 5.6544 8.43988 5.8528 8.82068C6.0512 9.20148 6.3232 9.50068 6.6688 9.71828C7.0176 9.93268 7.4096 10.0399 7.8448 10.0399ZM7.8448 10.9951C7.2144 10.9951 6.6432 10.8447 6.1312 10.5439C5.6192 10.2399 5.216 9.82388 4.9216 9.29588C4.6272 8.76468 4.48 8.17268 4.48 7.51988C4.48 6.86708 4.6272 6.27668 4.9216 5.74868C5.216 5.21748 5.6192 4.80148 6.1312 4.50068C6.6432 4.19668 7.2144 4.04468 7.8448 4.04468C8.4688 4.04468 9.0368 4.19668 9.5488 4.50068C10.064 4.80148 10.4672 5.21748 10.7584 5.74868C11.0528 6.27668 11.2 6.86708 11.2 7.51988C11.2 8.17268 11.0528 8.76468 10.7584 9.29588C10.4672 9.82388 10.064 10.2399 9.5488 10.5439C9.0368 10.8447 8.4688 10.9951 7.8448 10.9951Z" fill="#208A3C"/>
</svg>
