<svg width="16" height="16" viewBox="0 0 16 16" fill="none" xmlns="http://www.w3.org/2000/svg">
<path d="M3.91465 4C3.70873 4.5826 3.15311 5 2.5 5C1.67157 5 1 4.32843 1 3.5C1 2.67157 1.67157 2 2.5 2C3.15311 2 3.70873 2.4174 3.91465 3H9.5C10.8807 3 12 4.11929 12 5.5C12 6.88071 10.8807 8 9.5 8H6.5C5.67157 8 5 8.67157 5 9.5C5 10.3284 5.67157 11 6.5 11H12.0854C12.2913 10.4174 12.8469 10 13.5 10C14.3284 10 15 10.6716 15 11.5C15 12.3284 14.3284 13 13.5 13C12.8469 13 12.2913 12.5826 12.0854 12H6.5C5.11929 12 4 10.8807 4 9.5C4 8.11929 5.11929 7 6.5 7H9.5C10.3284 7 11 6.32843 11 5.5C11 4.67157 10.3284 4 9.5 4H3.91465Z" fill="#C77D55"/>
</svg>
